<?xml version="1.0" standalone="no"?>
<!DOCTYPE svg PUBLIC "-//W3C//DTD SVG 20010904//EN"
 "http://www.w3.org/TR/2001/REC-SVG-20010904/DTD/svg10.dtd">
<svg version="1.0" xmlns="http://www.w3.org/2000/svg"
 width="500.000000pt" height="500.000000pt" viewBox="0 0 500.000000 500.000000"
 preserveAspectRatio="xMidYMid meet">
<metadata>
Created by potrace 1.16, written by Peter Selinger 2001-2019
</metadata>
<g transform="translate(0.000000,500.000000) scale(0.100000,-0.100000)"
fill="#000000" stroke="none">
<path d="M700 2500 l0 -2200 1800 0 1800 0 0 2200 0 2200 -1800 0 -1800 0 0
-2200z m1500 1042 l0 -958 -36 -34 c-58 -54 -64 -80 -64 -258 0 -153 1 -159
26 -198 14 -22 41 -50 60 -64 24 -16 33 -28 29 -39 -10 -27 -83 -341 -100
-435 -25 -136 -18 -244 22 -329 39 -82 110 -154 190 -194 53 -26 67 -28 173
-28 106 0 120 2 173 28 80 40 151 112 190 194 40 85 47 193 22 329 -17 94 -90
408 -100 435 -4 11 5 23 29 39 19 14 46 42 60 64 25 39 26 45 26 198 0 178 -6
204 -64 258 l-36 34 0 958 0 958 650 0 650 0 0 -2000 0 -2000 -1600 0 -1600 0
0 2000 0 2000 650 0 650 0 0 -958z m400 758 l0 -200 -50 0 -50 0 0 -100 0
-100 50 0 50 0 0 -200 0 -200 -50 0 -50 0 0 -100 0 -100 50 0 50 0 0 -200 0
-200 -50 0 -50 0 0 -100 0 -100 50 0 50 0 0 -50 0 -50 -100 0 -100 0 0 200 0
200 50 0 50 0 0 100 0 100 -50 0 -50 0 0 200 0 200 50 0 50 0 0 100 0 100 -50
0 -50 0 0 200 0 200 50 0 50 0 0 100 0 100 -50 0 -50 0 0 50 0 50 100 0 100 0
0 -200z m100 -2000 l0 -100 -200 0 -200 0 0 100 0 100 200 0 200 0 0 -100z
m-101 -432 c54 -221 91 -410 91 -467 0 -108 -82 -191 -190 -191 -108 0 -190
83 -190 191 0 57 37 246 91 467 l32 132 67 0 67 0 32 -132z"/>
<path d="M2426 1469 c-18 -21 -26 -42 -26 -69 0 -27 8 -48 26 -69 22 -27 32
-31 74 -31 42 0 52 4 74 31 18 21 26 42 26 69 0 27 -8 48 -26 69 -22 27 -32
31 -74 31 -42 0 -52 -4 -74 -31z"/>
</g>
</svg>
