<?xml version="1.0" standalone="no"?>
<!DOCTYPE svg PUBLIC "-//W3C//DTD SVG 20010904//EN"
 "http://www.w3.org/TR/2001/REC-SVG-20010904/DTD/svg10.dtd">
<svg version="1.0" xmlns="http://www.w3.org/2000/svg"
 width="256.000000pt" height="256.000000pt" viewBox="0 0 256.000000 256.000000"
 preserveAspectRatio="xMidYMid meet">
<metadata>
Created by potrace 1.16, written by Peter Selinger 2001-2019
</metadata>
<g transform="translate(0.000000,256.000000) scale(0.100000,-0.100000)"
fill="#000000" stroke="none">
<path d="M572 2367 c-47 -15 -116 -79 -141 -132 -21 -45 -21 -49 -21 -906 0
-647 3 -872 12 -903 16 -55 99 -138 154 -154 59 -17 1349 -17 1408 0 55 16
138 99 154 154 17 59 17 1729 0 1788 -16 55 -99 138 -154 154 -54 16 -1362 15
-1412 -1z m1384 -133 c15 -11 37 -33 48 -48 21 -27 21 -35 21 -866 0 -831 0
-839 -21 -866 -11 -15 -33 -37 -48 -48 -27 -21 -37 -21 -676 -21 -639 0 -649
0 -676 21 -15 11 -37 33 -48 48 -21 27 -21 38 -24 819 -2 436 0 816 3 846 8
64 51 118 105 131 19 5 317 8 662 7 616 -2 627 -2 654 -23z"/>
<path d="M762 1928 c-7 -7 -12 -28 -12 -48 0 -20 5 -41 12 -48 17 -17 979 -17
996 0 16 16 16 80 0 96 -17 17 -979 17 -996 0z"/>
<path d="M762 1628 c-7 -7 -12 -28 -12 -48 0 -20 5 -41 12 -48 17 -17 979 -17
996 0 16 16 16 80 0 96 -17 17 -979 17 -996 0z"/>
<path d="M762 1328 c-7 -7 -12 -28 -12 -48 0 -20 5 -41 12 -48 17 -17 489 -17
506 0 7 7 12 28 12 48 0 20 -5 41 -12 48 -17 17 -489 17 -506 0z"/>
<path d="M1372 932 c-10 -10 -39 -51 -63 -90 -24 -40 -47 -72 -50 -72 -4 0
-19 17 -34 38 -38 50 -54 62 -86 62 -36 0 -59 -24 -59 -62 0 -23 19 -56 70
-125 68 -90 72 -93 110 -93 l40 0 90 135 c70 105 90 142 90 169 0 25 -6 38
-19 46 -30 16 -69 12 -89 -8z"/>
</g>
</svg>
