<?xml version="1.0" standalone="no"?>
<!DOCTYPE svg PUBLIC "-//W3C//DTD SVG 20010904//EN"
 "http://www.w3.org/TR/2001/REC-SVG-20010904/DTD/svg10.dtd">
<svg version="1.0" xmlns="http://www.w3.org/2000/svg"
 width="820.000000pt" height="661.000000pt" viewBox="0 0 820.000000 661.000000"
 preserveAspectRatio="xMidYMid meet">
<metadata>
Created by potrace 1.16, written by Peter Selinger 2001-2019
</metadata>
<g transform="translate(0.000000,661.000000) scale(0.100000,-0.100000)"
fill="#000000" stroke="none">
<path d="M3470 6200 c-624 -65 -1173 -323 -1605 -755 -470 -470 -736 -1081
-762 -1750 -27 -705 235 -1388 727 -1899 368 -382 823 -634 1341 -745 324 -69
738 -69 1059 -1 52 12 110 23 128 27 35 6 36 9 47 102 3 29 19 89 35 132 96
265 343 475 655 557 144 38 350 50 462 26 l23 -4 2 1322 3 1323 277 3 277 2
-33 78 c-248 578 -673 1031 -1231 1312 -274 138 -545 220 -855 260 -115 15
-445 21 -550 10z m351 -1421 c404 -40 748 -273 933 -629 204 -395 179 -835
-71 -1218 -48 -73 -232 -257 -305 -305 -233 -152 -455 -215 -718 -204 -266 11
-470 86 -685 252 -484 375 -594 1068 -250 1585 190 287 522 487 860 519 118
12 124 12 236 0z"/>
<path d="M3498 4631 c-763 -167 -1092 -1050 -621 -1668 215 -284 584 -443 934
-404 247 28 452 124 627 295 229 223 344 535 312 849 -14 141 -40 232 -105
362 -137 278 -367 468 -667 551 -129 36 -352 43 -480 15z m420 -405 c364 -127
542 -525 395 -880 -140 -336 -539 -494 -871 -345 -295 132 -451 453 -372 763
58 229 242 414 472 476 104 29 273 22 376 -14z"/>
<path d="M5760 3011 l0 -1349 -74 24 c-411 130 -890 -39 -1056 -375 -178 -357
60 -759 520 -882 124 -33 357 -33 483 0 108 28 119 33 227 96 156 92 269 227
323 389 21 60 21 76 24 1431 2 754 6 1376 8 1383 4 10 22 12 77 7 181 -17 282
-58 378 -155 118 -117 155 -234 147 -465 -5 -159 -33 -303 -97 -495 -21 -63
-37 -116 -35 -118 2 -2 25 29 52 70 171 255 289 506 339 723 25 109 25 315 0
400 -79 260 -280 439 -623 554 -190 64 -458 111 -628 111 l-65 0 0 -1349z"/>
</g>
</svg>
